<svg xmlns="http://www.w3.org/2000/svg" viewBox="0 0 38.01 25.21"><defs><style>.cls-1{fill:#ff8552;opacity:0.39;}.cls-2{fill:#273043;}</style></defs><title>bibl</title><g id="Layer_2" data-name="Layer 2"><g id="Layer_1-2" data-name="Layer 1"><path class="cls-1" d="M24,11c0,7.18-2.82,13-10,13S0,28.18,0,21,4.82,0,12,0,24,3.82,24,11Z"/><path class="cls-2" d="M11.54,16.89a1.5,1.5,0,0,0-.48-.3,1.4,1.4,0,0,0-1.1,0,1.26,1.26,0,0,0-.78.78A1.45,1.45,0,0,0,9.48,19a1.61,1.61,0,0,0,.48.3,1.32,1.32,0,0,0,1.1,0,1.5,1.5,0,0,0,.48-.3,1.45,1.45,0,0,0,.3-1.58A1.5,1.5,0,0,0,11.54,16.89Zm4.76-12H36.56a1.45,1.45,0,1,0,0-2.89H16.3a1.45,1.45,0,1,0,0,2.89ZM11.54,9.66A1.47,1.47,0,0,0,10,9.35a1.88,1.88,0,0,0-.48.31,1.45,1.45,0,0,0-.3.47,1.32,1.32,0,0,0,0,1.1,1.69,1.69,0,0,0,.3.48A1.88,1.88,0,0,0,10,12a1.4,1.4,0,0,0,1.1,0,1.72,1.72,0,0,0,.48-.31,1.5,1.5,0,0,0,.3-.48,1.32,1.32,0,0,0,0-1.1A1.45,1.45,0,0,0,11.54,9.66Zm25-.42H16.3a1.45,1.45,0,1,0,0,2.89H36.56a1.45,1.45,0,1,0,0-2.89Zm-25-6.82a1.34,1.34,0,0,0-.48-.3,1.45,1.45,0,0,0-1.58.3,1.69,1.69,0,0,0-.3.48,1.32,1.32,0,0,0,0,1.1,1.79,1.79,0,0,0,.3.47,1.64,1.64,0,0,0,.48.31,1.43,1.43,0,0,0,1.58-.31,1.57,1.57,0,0,0,.3-.47,1.32,1.32,0,0,0,0-1.1A1.5,1.5,0,0,0,11.54,2.42Zm25,14.05H16.3a1.45,1.45,0,0,0,0,2.9H36.56a1.45,1.45,0,1,0,0-2.9Z"/></g></g></svg>