<?xml version="1.0" encoding="utf-8"?>
<!-- Generator: Adobe Illustrator 23.0.4, SVG Export Plug-In . SVG Version: 6.00 Build 0)  -->
<svg version="1.1" id="Layer_1" xmlns="http://www.w3.org/2000/svg" xmlns:xlink="http://www.w3.org/1999/xlink" x="0px" y="0px"
	 viewBox="0 0 24 24" style="enable-background:new 0 0 24 24;" xml:space="preserve">
<style type="text/css">
	.st0{fill:#727270;}
</style>
<path class="st0" d="M17,2H5C4.4,2,4,2.4,4,3v16c0,0.6,0.4,1,1,1h1v1c0,0.6,0.4,1,1,1l0,0c0.6,0,1-0.4,1-1v-1h9c1.7,0,3-1.3,3-3V5
	C20,3.3,18.7,2,17,2z M14,18H6V4h8V18z M18,17c0,0.6-0.4,1-1,1h-1V4h1c0.6,0,1,0.4,1,1V17z"/>
</svg>
