<svg id="Layer_1" data-name="Layer 1" xmlns="http://www.w3.org/2000/svg" xmlns:xlink="http://www.w3.org/1999/xlink" viewBox="0 0 944.57 778.86"><defs><style>.cls-1{fill:none;}.cls-2{clip-path:url(#clip-path);}.cls-3{fill:#ff8552;}.cls-4{fill:#949494;}.cls-5,.cls-6,.cls-7{opacity:0.14;}.cls-5,.cls-6,.cls-7,.cls-8{isolation:isolate;}.cls-5{fill:url(#SVGID_1);}.cls-6{fill:url(#SVGID_3_);}.cls-7{fill:url(#SVGID_1-5);}.cls-8{fill:#f8f8f8;opacity:0.16;}.cls-9{fill:#d6d7d4;}.cls-10{fill:#fff;}</style><clipPath id="clip-path"><rect class="cls-1" width="12" height="12"/></clipPath><pattern id="SVGID_1" data-name="SVGID 1" width="12" height="12" patternTransform="matrix(-1, 0, 0, 1, -15439.13, 16376.98)" patternUnits="userSpaceOnUse" viewBox="0 0 12 12"><rect class="cls-1" width="12" height="12"/><g class="cls-2"><rect class="cls-1" width="12" height="12"/><rect class="cls-1" width="12" height="12"/><circle class="cls-3" cx="12" cy="3" r="2"/><circle class="cls-3" cx="6" r="2"/><circle class="cls-3" cy="3" r="2"/><circle class="cls-3" cx="12" cy="9" r="2"/><circle class="cls-3" cx="6" cy="6" r="2"/><circle class="cls-3" cy="9" r="2"/><circle class="cls-3" cx="6" cy="12" r="2"/></g></pattern><pattern id="SVGID_3_" data-name="SVGID 3 " width="12" height="12" patternTransform="matrix(-1, 0, 0, 1, -15439.06, 16377.04)" patternUnits="userSpaceOnUse" viewBox="0 0 12 12"><rect class="cls-1" width="12" height="12"/><rect class="cls-1" width="12" height="12"/><rect class="cls-1" width="12" height="12"/><rect class="cls-1" width="12" height="12"/><circle class="cls-4" cx="12" cy="3" r="2"/><circle class="cls-4" cx="6" r="2"/><circle class="cls-4" cy="3" r="2"/><circle class="cls-4" cx="12" cy="9" r="2"/><circle class="cls-4" cx="6" cy="6" r="2"/><circle class="cls-4" cy="9" r="2"/><circle class="cls-4" cx="6" cy="12" r="2"/></pattern><pattern id="SVGID_1-5" data-name="SVGID 1" width="12" height="12" patternTransform="matrix(-1, 0, 0, 1, -15439.06, 16377.04)" patternUnits="userSpaceOnUse" viewBox="0 0 12 12"><rect class="cls-1" width="12" height="12"/><g class="cls-2"><rect class="cls-1" width="12" height="12"/><rect class="cls-1" width="12" height="12"/><circle class="cls-3" cx="12" cy="3" r="2"/><circle class="cls-3" cx="6" r="2"/><circle class="cls-3" cy="3" r="2"/><circle class="cls-3" cx="12" cy="9" r="2"/><circle class="cls-3" cx="6" cy="6" r="2"/><circle class="cls-3" cy="9" r="2"/><circle class="cls-3" cx="6" cy="12" r="2"/></g></pattern></defs><title>empty_or</title><g id="shadows"><path class="cls-5" d="M510.8,205.7c.6,10,2,100-30.5,112.3,36.5,2.1,48.8-2.9,48.8-2.9l2.1-8.4,2.6-8.3,2.5-16.9,1.7-27.8-1.3-26.8-5.2,2.1-5-2.4-11.4-12.2Z" transform="translate(0.07 0.06)"/><path class="cls-5" d="M419,99.4c-4,2.3-30.7,33.4-30.1,55.6,7.1,5.8,22.1,14.4,22.1,14.4l6.3-11.8,8.5-12.7,11.6-10-2.9-10-5.9-16Z" transform="translate(0.07 0.06)"/><polygon class="cls-6" points="440.97 127.66 440.97 132.36 449.47 127.46 471.07 119.96 471.67 113.96 450.97 114.66 442.27 119.46 440.97 127.66"/><polygon class="cls-7" points="501.47 114.86 551.07 114.46 557.27 117.96 561.07 125.76 560.67 165.86 547.07 153.76 530.47 146.16 516.97 144.96 512.67 137.76 503.67 127.06 499.07 125.66 501.47 114.86"/><polygon class="cls-7" points="560.67 247.96 561.07 287.26 560.77 326.36 557.37 334.46 548.07 337.76 536.97 336.86 530.07 308.46 534.07 300.06 538.07 262.56 537.67 227.16 540.77 225.76 560.67 247.96"/></g><g id="vector"><path class="cls-8" d="M705.7,97.8C651,66.7,589.4,53.6,525.7,48.4l3.8,8.7-.8,9.6-3.1,7.1L517,79.3l-6,2-5.5,13.8-4.1,19.7,27.1-.3,26,.7,5.7,6,.9,11.2-1.2,32.2,7.1,8.2,6.9,9.9,1.8,6.4-3.1,7.7,7.8,9.6,21.8,30.3,24.5,34.8,16.9,26.3,5.1,6.7,12.4,7,4.3,8.8-.8,9.8-4.6,7.1-8.2,4-10-1-7.4-5.7-4.9-13.6L602,293.4,560.9,248l.4,25v38.6l-.4,17-4.9,6.3-4.5,2.1-15.7.3L407.5,317l-3.8-1.5a12.61,12.61,0,0,1-4.2-1.6h0a1.21,1.21,0,0,1-.5-.5q-.9-1-1.8-5.4h0c-1.4-6.3-2.7-17.4-3.2-31.1l-.2-2V271c-.1-6,0-12.5.2-19.2l.1-7,.7-5.9q.9-10.8,2.7-21.9v-.2c1.1-6.4,2.4-12.9,4-19.2v-.1h0a155.33,155.33,0,0,1,9.9-28h0a72.16,72.16,0,0,1-13-7.3h0l-.2-.1c-.9-.6-1.8-1.3-2.7-2l-7.7-5.6-5.6-6.5c-1.1-1.2-2.1-2.3-3-3.4h0a39.41,39.41,0,0,1-3.8-5.3l-1.6-2.4.2-.8a1.27,1.27,0,0,1-.1-.6,9.69,9.69,0,0,1,1.4-5.2h0l-18-21.7L345,88l-1.4-10.1,2.6-7.4L357.9,58l15.2-11.5C301.2,50.1,235.7,62.8,199,102.9c-47.1,51.3-46.4,148.1-53.6,236.3s-22.3,168.1.7,242.9C164.9,643.6,209.5,702,263.9,727c86.2-59.6,250.5-147.2,407.7-207.7,2.8-2.5,5.6-5,8.5-7.5,64.5-57,150.5-128,160.8-205.7C851.2,228.2,785.8,143.5,705.7,97.8Z" transform="translate(0.07 0.06)"/><path class="cls-3" d="M470.6,122.4h-.1a1.24,1.24,0,0,1-1.1-1.4l1.4-13.2C459,102,451.2,87.6,451.2,71.7a46,46,0,0,1,1.9-13.3,1.24,1.24,0,1,1,2.4.6,44.63,44.63,0,0,0-1.8,12.6c0,15.3,7.6,29,19,34.2l.8.4-1.6,15A1.38,1.38,0,0,1,470.6,122.4Z" transform="translate(0.07 0.06)"/><path class="cls-3" d="M491.8,137.1a48.09,48.09,0,0,1-10.5-1.4,1.24,1.24,0,1,1,.6-2.4c8.2,1.9,13.5,1.4,14,.6.9-3.2,5.9-27.2,8.5-39.3v-.2l.1-.2a40.73,40.73,0,0,0,5.1-12.6,1.27,1.27,0,1,1,2.5.5,40.58,40.58,0,0,1-5.3,13.1c-.7,3.2-7.4,35.3-8.5,39.3C497.7,136.6,494.9,137.1,491.8,137.1Z" transform="translate(0.07 0.06)"/><path class="cls-9" d="M730.9,497.7c-8.3-2.9-35.7-39-35.7-81.9C695.2,366,748,271.6,753,238c3.2-21.4,17.6-209.6,126.9-209.6,59.6,0,64.6,116.5,64.6,168.6,0,121.7-177,225.4-177,288.7A290,290,0,0,1,730.9,497.7Z" transform="translate(0.07 0.06)"/><path class="cls-10" d="M744.4,495.2a2,2,0,0,1-2-2c0-45.9,16.7-114.3,44.6-182.9,27.8-68.3,62.5-126.9,93-156.6a2,2,0,0,1,2.8,2.8c-30,29.3-64.5,87.4-92,155.2-27.7,68.2-44.3,136-44.3,181.4A2.18,2.18,0,0,1,744.4,495.2Z" transform="translate(0.07 0.06)"/><path class="cls-9" d="M323.7,688.7c-5.6-1.7-20.8-21-20.8-45.9,0-24,6.7-59,6.7-91.5,0-18.1-6.7-24.5-6.7-46,0-34.2,32.5-44.7,43.8-44.7,16.8,0,25.7,14.3,25.7,21.9,0,10.6-3,18.6-3,30.4,0,22.9,8,25.8,7.2,45.5-2.5,57.7-26.5,114.1-47.5,126.9Z" transform="translate(0.07 0.06)"/><path class="cls-9" d="M323.7,688.7c6.8-5.9-31.5-192.5-64.7-225.5-36.1-35.9-65.9-54.9-75.7-66.7-17.4-20.9-28.5-99.7-105.1-99.7-20.3,0-68,16.8-76.6,87.6-2.8,23.3-7.9,58.9,40.5,110.5,32.6,34.8,73.4,22.8,113.3,60.4,28.7,27.1,24.7,68,51.5,102.5C228.4,685.5,284.1,722.7,323.7,688.7Z" transform="translate(0.07 0.06)"/><path class="cls-10" d="M314.3,695.1a2,2,0,0,1-2-2c0-21.1-32.5-81.1-80.9-149.3-49.7-70.1-98.7-124-124.9-137.4a2,2,0,0,1,1.8-3.6c21.2,10.9,65.5,53,126.3,138.6,22.5,31.7,42.9,63.7,57.4,90.1,11.1,20.1,24.3,47.1,24.3,61.5A2,2,0,0,1,314.3,695.1Z" transform="translate(0.07 0.06)"/><path class="cls-10" d="M323.7,690.7a2,2,0,0,1-2-1.7c-1.5-11.4-7.9-105.7,10.1-140.9a2,2,0,1,1,3.6,1.8c-17.4,34.1-11,128.9-9.7,138.6a1.94,1.94,0,0,1-1.7,2.2Z" transform="translate(0.07 0.06)"/><path class="cls-9" d="M207,778.8a3.61,3.61,0,0,1-2-.6,3.53,3.53,0,0,1-.9-4.9c22.8-32.5,132.6-102,267.1-169C628.3,526,778.4,471.1,882.8,453.5a3.49,3.49,0,0,1,1.1,6.9c-103.8,17.4-253.1,72.1-409.6,150.1C342.9,676,231.7,746.1,209.9,777.3A3.51,3.51,0,0,1,207,778.8Z" transform="translate(0.07 0.06)"/><path class="cls-3" d="M440.7,133.7a1.22,1.22,0,0,1-1.2-1.2v-6.3A13.19,13.19,0,0,1,452.7,113h18.6a1.22,1.22,0,0,1,1.2,1.2,1.29,1.29,0,0,1-1.2,1.2H452.7a10.82,10.82,0,0,0-10.8,10.8v6.3A1.16,1.16,0,0,1,440.7,133.7Z" transform="translate(0.07 0.06)"/><path class="cls-3" d="M548.6,338.4H531.5a1.22,1.22,0,0,1-1.2-1.2,1.29,1.29,0,0,1,1.2-1.2h17.1a10.82,10.82,0,0,0,10.8-10.8V247.9a1.22,1.22,0,0,1,1.2-1.2,1.29,1.29,0,0,1,1.2,1.2v77.3A13.12,13.12,0,0,1,548.6,338.4Z" transform="translate(0.07 0.06)"/><path class="cls-3" d="M560.6,166.6a1.22,1.22,0,0,1-1.2-1.2V126.3a10.82,10.82,0,0,0-10.8-10.8H501.5a1.22,1.22,0,0,1-1.2-1.2,1.29,1.29,0,0,1,1.2-1.2h47.1a13.19,13.19,0,0,1,13.2,13.2v39.1A1.15,1.15,0,0,1,560.6,166.6Z" transform="translate(0.07 0.06)"/><path class="cls-3" d="M452.2,729H379.1V715.9l44.8-20.6,28.3,5.4V729Zm-70.6-2.5h68.1V702.8L424.2,698l-42.6,19.6Z" transform="translate(0.07 0.06)"/><path class="cls-3" d="M581.3,728.9H548.1l-4.3-14,41.1-31.4,19.9-8.4.5,1.1c3.5,7.9,11.9,28.6,12,28.8l.4,1Zm-31.4-2.5h30.6l34-21.4c-1.6-4-7.8-19.2-11.1-26.6l-17.5,7.4-39.3,30.1Z" transform="translate(0.07 0.06)"/><path class="cls-3" d="M374.9,131.4a1.61,1.61,0,0,1-.9-.3A135.6,135.6,0,0,1,354.2,107c-5.2-7.9-11.5-19.4-11.9-29-.2-4,2.5-8.8,8.2-14.7,19.4-20.1,70.2-47.7,75.2-47.7h.4a34.24,34.24,0,0,1,9-9.2c10.4-7.5,21.9-8.6,26.3-2.6a9.32,9.32,0,0,1,1.4,7.4,1.27,1.27,0,0,1-2.5-.5,7.55,7.55,0,0,0-1-5.5C456,.6,445.5,2,436.6,8.4a31.22,31.22,0,0,0-8.8,9.3,1.38,1.38,0,0,1-1.6.5.9.9,0,0,0-.5-.1c-2.1.2-22.3,10.2-42.7,23.3-24.5,15.8-38.4,29.1-38.1,36.5.6,16.5,20.4,41.6,30.9,51.3a1.37,1.37,0,0,1,.1,1.8A1.43,1.43,0,0,1,374.9,131.4Z" transform="translate(0.07 0.06)"/><path class="cls-3" d="M410.8,100.2a1.22,1.22,0,0,1-.9-.4c-5.6-5.6-12.8-11.9-17.6-16.1-2.1-1.8-3.8-3.3-4.6-4.1a1.5,1.5,0,0,1-.4-1.1,1.27,1.27,0,0,1,.7-.9c3.9-2,33.3-30.7,48.2-45.6a.86.86,0,0,1,.6-.3,33.2,33.2,0,0,0,12.4-5.6c6.1-4.4,10.4-10.2,11.2-15.2a1.22,1.22,0,0,1,2.4.4c-.9,5.6-5.6,12.1-12.2,16.8a35.06,35.06,0,0,1-13,6c-5.2,5.1-38.6,38.3-47.2,44.8.9.8,2,1.8,3.4,3,4.8,4.2,12.1,10.6,17.7,16.3a1.27,1.27,0,0,1,0,1.8C411.5,100.1,411.1,100.2,410.8,100.2Z" transform="translate(0.07 0.06)"/><path class="cls-3" d="M411,170.6a.9.9,0,0,1-.5-.1c-18.9-7.8-37.6-28.4-38.4-34.8-.6-4.9,6.3-14.1,12.4-20.5,9-9.3,22-18.9,31.6-18,9.9.9,18.2,20.7,22.4,37.3a1.24,1.24,0,1,1-2.4.6c-5.1-20.2-13.4-34.8-20.2-35.5-8.8-.8-21.4,8.8-29.6,17.3s-12.1,15.7-11.7,18.5c.7,5.2,18.8,25.3,36.9,32.8a1.35,1.35,0,0,1,.7,1.6A1.3,1.3,0,0,1,411,170.6Z" transform="translate(0.07 0.06)"/><path class="cls-3" d="M517.4,146.6a1.25,1.25,0,0,1-1.1-.6c-5.1-9.3-11.1-16-17.8-20a1.23,1.23,0,0,1,1.3-2.1c7.1,4.2,13.4,11.3,18.7,20.9a1.28,1.28,0,0,1-.5,1.7C517.8,146.5,517.6,146.6,517.4,146.6Z" transform="translate(0.07 0.06)"/><path class="cls-3" d="M452.3,320c-21.6,0-50.6-1.2-54.7-5.9-2.6-3-5.6-23.8-5.6-48.7,0-22.7,2.3-56,13.4-85.7,13.2-35.5,35.1-55.6,65-59.8a1.26,1.26,0,0,1,.3,2.5c-29,4.1-50.2,23.7-63,58.2-10.9,29.4-13.2,62.3-13.2,84.9,0,26.8,3.3,45.2,5,47.1,2.5,2.9,26.3,5.5,61.7,4.9,34.9-.6,61.2-4,67.1-8.6,5.6-4.4,10-41.1,7.2-81.8a1.25,1.25,0,0,1,2.5-.1c2.7,39.2-1.1,78.4-8.1,83.9-7.7,6-40.5,8.7-68.6,9.1Z" transform="translate(0.07 0.06)"/><path class="cls-3" d="M502.9,69.7a.9.9,0,0,1-.5-.1c-.1,0-.2-.1-.3-.1-3-1-5.7-4.8-8-8.8a1.23,1.23,0,1,1,2.1-1.3c1.9,3.2,4.4,6.9,6.7,7.7.2.1.4.1.6.2a1.29,1.29,0,0,1,.6,1.7A1.52,1.52,0,0,1,502.9,69.7Z" transform="translate(0.07 0.06)"/><path class="cls-3" d="M454.2,60c-20.4,0-20.4-14.2-20.4-22.6a7.55,7.55,0,0,1,1.6-4.6,1.28,1.28,0,0,1,2,1.6,4.82,4.82,0,0,0-1.1,3c0,8.8,0,19.7,17,20.1,1.6-4.7,6.1-13.7,11.5-18a1.23,1.23,0,0,1,1.3-.2l.5.2c1.2.5,3.4,1.4,6,2.5a1.23,1.23,0,1,1-.9,2.3c-2.5-1-4.6-1.9-5.8-2.4-5.1,4.4-9.3,13.4-10.4,17.2A1.68,1.68,0,0,1,454.2,60Z" transform="translate(0.07 0.06)"/><path class="cls-3" d="M512.9,81.7a1.2,1.2,0,0,1-1.2-1.1,1.24,1.24,0,0,1,1.1-1.4c10.4-1.1,15.4-7.8,15.4-20.3,0-4-2.2-7.4-4.2-10.5-1.6-2.5-3-4.7-3-6.8,0-1,.1-2.1.2-3.2.4-4.1,1-9.2-2.9-13-4.8-4.7-12-4.2-19.6-3.8-2.2.1-4.6.3-6.8.3-4.6,0-8.1-2.4-11.8-4.9-4.1-2.8-8.4-5.7-14.7-5.7a5.53,5.53,0,0,0-3.1.8,1.17,1.17,0,0,1-1.7-.4A1.17,1.17,0,0,1,461,10a8.56,8.56,0,0,1,4.4-1.2h0c7,0,11.8,3.2,16,6.1,3.5,2.4,6.6,4.4,10.4,4.4q3.3,0,6.6-.3c7.8-.5,15.8-1,21.5,4.5,4.8,4.7,4.2,10.7,3.7,15.1-.1,1.1-.2,2.1-.2,3,0,1.4,1.3,3.4,2.6,5.5,2.1,3.2,4.6,7.1,4.6,11.8,0,9.5-3.1,21.2-17.7,22.8Z" transform="translate(0.07 0.06)"/><path class="cls-3" d="M510.8,83.1a1.3,1.3,0,0,1-1.2-.8,1.15,1.15,0,0,1,.7-1.6,5.55,5.55,0,0,0,2.3-1.7,6.74,6.74,0,0,0-.5-9.4,6.65,6.65,0,0,0-9.4.5,1.37,1.37,0,0,1-1.8.1,1.27,1.27,0,0,1-.1-1.8,9.13,9.13,0,0,1,13.5,12.3,9,9,0,0,1-3.2,2.3C511.1,83.1,511,83.1,510.8,83.1Z" transform="translate(0.07 0.06)"/><path class="cls-3" d="M569.7,693.8a1.7,1.7,0,0,1-.7-.1,3.44,3.44,0,0,1-2.7-4.1l71-351.7a3.47,3.47,0,0,1,6.8,1.4L573.1,691A3.35,3.35,0,0,1,569.7,693.8Z" transform="translate(0.07 0.06)"/><path class="cls-3" d="M648,305.9a1.7,1.7,0,0,1-.7-.1,3.44,3.44,0,0,1-2.7-4.1L673.7,157a3.47,3.47,0,0,1,6.8,1.4L651.3,303.1A3.25,3.25,0,0,1,648,305.9Z" transform="translate(0.07 0.06)"/><path class="cls-3" d="M649.3,341.9a21,21,0,0,1-14.9-6.4,21.81,21.81,0,0,1-6.4-14.7c-25.5-22.4-69.5-73.3-86.1-92.6l-2.1-2.5a1.27,1.27,0,1,1,1.9-1.7l2.1,2.5c16.7,19.3,60.9,70.6,86.3,92.7l.4.4v.6a19.16,19.16,0,0,0,5.6,13.5c6.9,6.9,17.5,7.6,23.7,1.5a14.65,14.65,0,0,0,4.2-10.5,18.52,18.52,0,0,0-5.7-13.1,18.79,18.79,0,0,0-10.3-5.4l-.6-.1-.3-.5c-12.6-20.3-54.6-81.8-75.5-108.1a1.28,1.28,0,1,1,2-1.6c21.6,27.2,62.6,87.4,75.4,107.9a21.65,21.65,0,0,1,11.1,6,21.1,21.1,0,0,1,6.4,14.9,17.65,17.65,0,0,1-4.9,12.3A17.48,17.48,0,0,1,649.3,341.9Z" transform="translate(0.07 0.06)"/><path class="cls-3" d="M531,229.6c-8.8,0-21.7-20.5-27.9-38.9-6.6-20-5.2-35.4,4-42.2h0c9.1-6.7,21-6.5,34.6.9,18.4,9.9,35.7,31.1,35.2,39.7-.5,8.8-14.5,21.5-18.8,25.1-8.3,7.1-20.3,15.4-27.1,15.4Zm-22.4-79.1c-11.7,8.7-6.1,30.4-3.1,39.4,7,21,19.4,37.2,25.5,37.2h0c10.5,0,42.8-26.6,43.4-38.2.4-7-15.3-27.3-33.9-37.4-8.8-4.7-21.5-8.7-31.9-1Z" transform="translate(0.07 0.06)"/><path class="cls-3" d="M531.1,306.7a8.13,8.13,0,0,1-2.1,3c-8.7,6.9-54.7,9.6-89.7,8.8,16.8,83.5,133,355.4,142.2,369.8,7.2,1.5,23.6-5.6,26.2-10.3C610.2,673.7,541.3,341.8,531.1,306.7Z" transform="translate(0.07 0.06)"/><path class="cls-3" d="M402.3,315.1c.3,28.8,5.2,355.1,14,384.2,8,4,29,5,36,2,6.3-2.7,43.5-313.4,50.5-385.1C469.8,320,417.2,319.5,402.3,315.1Z" transform="translate(0.07 0.06)"/></g></svg>