<?xml version="1.0" encoding="utf-8"?>
<!-- Generator: Adobe Illustrator 23.0.4, SVG Export Plug-In . SVG Version: 6.00 Build 0)  -->
<svg version="1.1" id="Layer_1" xmlns="http://www.w3.org/2000/svg" xmlns:xlink="http://www.w3.org/1999/xlink" x="0px" y="0px"
	 viewBox="0 0 944.4 778.8" style="enable-background:new 0 0 944.4 778.8;" xml:space="preserve">
<style type="text/css">
	.st0{fill:none;}
	.st1{fill:#949494;}
	.st2{opacity:0.14;fill:url(#SVGID_1_);}
	.st3{opacity:0.14;fill:url(#SVGID_2_);}
	.st4{opacity:0.14;fill:url(#SVGID_3_);}
	.st5{opacity:0.14;fill:url(#SVGID_4_);}
	.st6{opacity:0.14;fill:url(#SVGID_5_);}
	.st7{opacity:0.16;fill:#F8F8F8;}
	.st8{fill:#D6D7D4;}
	.st9{fill:#FFFFFF;}
</style>
<pattern  y="778.8" width="12" height="12" patternUnits="userSpaceOnUse" id="New_Pattern" viewBox="2 -14 12 12" style="overflow:visible;">
	<g>
		<rect x="2" y="-14" class="st0" width="12" height="12"/>
		<rect x="2" y="-14" class="st0" width="12" height="12"/>
		<rect x="2" y="-14" class="st0" width="12" height="12"/>
		<circle class="st1" cx="14" cy="-5" r="2"/>
		<circle class="st1" cx="8" cy="-2" r="2"/>
		<circle class="st1" cx="2" cy="-5" r="2"/>
		<circle class="st1" cx="14" cy="-11" r="2"/>
		<circle class="st1" cx="8" cy="-8" r="2"/>
		<circle class="st1" cx="2" cy="-11" r="2"/>
		<circle class="st1" cx="8" cy="-14" r="2"/>
	</g>
</pattern>
<title>hiker-man-monochrome</title>
<g>
	<g id="shadows">
		<pattern  id="SVGID_1_" xlink:href="#New_Pattern" patternTransform="matrix(-1 0 0 -1 -15431.1299 -16359.7803)">
		</pattern>
		<path class="st2" d="M510.8,205.7c0.6,10,2,100-30.5,112.3c36.5,2.1,48.8-2.9,48.8-2.9l2.1-8.4l2.6-8.3l2.5-16.9l1.7-27.8
			l-1.3-26.8l-5.2,2.1l-5-2.4l-11.4-12.2L510.8,205.7z"/>
		<pattern  id="SVGID_2_" xlink:href="#New_Pattern" patternTransform="matrix(-1 0 0 -1 -15431.1299 -16359.7803)">
		</pattern>
		<path class="st3" d="M419,99.4c-4,2.3-30.7,33.4-30.1,55.6c7.1,5.8,22.1,14.4,22.1,14.4l6.3-11.8l8.5-12.7l11.6-10l-2.9-10
			l-5.9-16L419,99.4z"/>
		<pattern  id="SVGID_3_" xlink:href="#New_Pattern" patternTransform="matrix(-1 0 0 -1 -15431.1299 -16359.7803)">
		</pattern>
		<polygon class="st4" points="440.9,127.6 440.9,132.3 449.4,127.4 471,119.9 471.6,113.9 450.9,114.6 442.2,119.4 		"/>
		<pattern  id="SVGID_4_" xlink:href="#New_Pattern" patternTransform="matrix(-1 0 0 -1 -15431.1299 -16359.7803)">
		</pattern>
		<polygon class="st5" points="501.4,114.8 551,114.4 557.2,117.9 561,125.7 560.6,165.8 547,153.7 530.4,146.1 516.9,144.9 
			512.6,137.7 503.6,127 499,125.6 		"/>
		<pattern  id="SVGID_5_" xlink:href="#New_Pattern" patternTransform="matrix(-1 0 0 -1 -15431.1299 -16359.7803)">
		</pattern>
		<polygon class="st6" points="560.6,247.9 561,287.2 560.7,326.3 557.3,334.4 548,337.7 536.9,336.8 530,308.4 534,300 538,262.5 
			537.6,227.1 540.7,225.7 		"/>
	</g>
	<g id="vector">
		<path class="st7" d="M705.7,97.8C651,66.7,589.4,53.6,525.7,48.4l3.8,8.7l-0.8,9.6l-3.1,7.1l-8.6,5.5l-6,2l-5.5,13.8l-4.1,19.7
			l27.1-0.3l26,0.7l5.7,6l0.9,11.2l-1.2,32.2l7.1,8.2l6.9,9.9l1.8,6.4l-3.1,7.7l7.8,9.6l21.8,30.3l24.5,34.8l16.9,26.3l5.1,6.7
			l12.4,7l4.3,8.8l-0.8,9.8l-4.6,7.1l-8.2,4l-10-1l-7.4-5.7l-4.9-13.6l-27.5-27.5l-41.1-45.4l0.4,25v38.6l-0.4,17l-4.9,6.3l-4.5,2.1
			l-15.7,0.3l-128.3-20.3l-3.8-1.5c-1.5-0.3-2.9-0.8-4.2-1.6l0,0l0,0c-0.2-0.1-0.4-0.3-0.5-0.5c-0.6-0.7-1.2-2.5-1.8-5.4l0,0
			c-1.4-6.3-2.7-17.4-3.2-31.1l-0.2-2l0-3.9c-0.1-6,0-12.5,0.2-19.2l0.1-7l0.7-5.9c0.6-7.2,1.5-14.5,2.7-21.9v-0.1v-0.1
			c1.1-6.4,2.4-12.9,4-19.2v-0.1l0,0c2.4-9.6,5.7-19,9.9-28l0,0c-4.6-2-8.9-4.4-13-7.3l0,0l-0.2-0.1c-0.9-0.6-1.8-1.3-2.7-2
			l-7.7-5.6l-5.6-6.5c-1.1-1.2-2.1-2.3-3-3.4l0,0l0,0c-1.4-1.7-2.7-3.4-3.8-5.3l-1.6-2.4l0.2-0.8c-0.1-0.2-0.1-0.4-0.1-0.6
			c0-1.8,0.4-3.6,1.4-5.2l0,0l-18-21.7L345,88l-1.4-10.1l2.6-7.4L357.9,58l15.2-11.5c-71.9,3.6-137.4,16.3-174.1,56.4
			c-47.1,51.3-46.4,148.1-53.6,236.3s-22.3,168.1,0.7,242.9c18.8,61.5,63.4,119.9,117.8,144.9c86.2-59.6,250.5-147.2,407.7-207.7
			c2.8-2.5,5.6-5,8.5-7.5c64.5-57,150.5-128,160.8-205.7C851.2,228.2,785.8,143.5,705.7,97.8z"/>
		<path class="st8" d="M470.6,122.4c0,0-0.1,0-0.1,0c-0.7-0.1-1.2-0.7-1.1-1.4l1.4-13.2c-11.8-5.8-19.6-20.2-19.6-36.1
			c0-4.5,0.6-9,1.9-13.3c0.2-0.7,0.9-1,1.5-0.9c0.7,0.2,1,0.9,0.9,1.5c-1.2,4.1-1.8,8.3-1.8,12.6c0,15.3,7.6,29,19,34.2l0.8,0.4
			l-1.6,15C471.8,121.9,471.2,122.4,470.6,122.4z"/>
		<path class="st8" d="M491.8,137.1c-4.2,0-9-1-10.5-1.4c-0.7-0.2-1.1-0.8-0.9-1.5s0.8-1.1,1.5-0.9c8.2,1.9,13.5,1.4,14,0.6
			c0.9-3.2,5.9-27.2,8.5-39.3l0-0.2l0.1-0.2c2.4-3.9,4.1-8.1,5.1-12.6c0.1-0.7,0.8-1.1,1.5-1c0.7,0.1,1.1,0.8,1,1.5
			c-1,4.7-2.8,9.1-5.3,13.1c-0.7,3.2-7.4,35.3-8.5,39.3C497.7,136.6,494.9,137.1,491.8,137.1z"/>
		<path class="st8" d="M730.9,497.7c-8.3-2.9-35.7-39-35.7-81.9C695.2,366,748,271.6,753,238c3.2-21.4,17.6-209.6,126.9-209.6
			c59.6,0,64.6,116.5,64.6,168.6c0,121.7-177,225.4-177,288.7C755.6,490.5,743.4,494.5,730.9,497.7z"/>
		<path class="st9" d="M744.4,495.2c-1.1,0-2-0.9-2-2c0-45.9,16.7-114.3,44.6-182.9c27.8-68.3,62.5-126.9,93-156.6
			c0.8-0.8,2.1-0.8,2.8,0c0.8,0.8,0.8,2.1,0,2.8c-30,29.3-64.5,87.4-92,155.2c-27.7,68.2-44.3,136-44.3,181.4
			C746.4,494.3,745.5,495.2,744.4,495.2z"/>
		<path class="st8" d="M323.7,688.7c-5.6-1.7-20.8-21-20.8-45.9c0-24,6.7-59,6.7-91.5c0-18.1-6.7-24.5-6.7-46
			c0-34.2,32.5-44.7,43.8-44.7c16.8,0,25.7,14.3,25.7,21.9c0,10.6-3,18.6-3,30.4c0,22.9,8,25.8,7.2,45.5
			c-2.5,57.7-26.5,114.1-47.5,126.9L323.7,688.7z"/>
		<path class="st8" d="M323.7,688.7c6.8-5.9-31.5-192.5-64.7-225.5c-36.1-35.9-65.9-54.9-75.7-66.7c-17.4-20.9-28.5-99.7-105.1-99.7
			c-20.3,0-68,16.8-76.6,87.6c-2.8,23.3-7.9,58.9,40.5,110.5c32.6,34.8,73.4,22.8,113.3,60.4c28.7,27.1,24.7,68,51.5,102.5
			C228.4,685.5,284.1,722.7,323.7,688.7z"/>
		<path class="st9" d="M314.3,695.1c-1.1,0-2-0.9-2-2c0-21.1-32.5-81.1-80.9-149.3c-49.7-70.1-98.7-124-124.9-137.4
			c-1-0.5-1.4-1.7-0.9-2.7c0.5-1,1.7-1.4,2.7-0.9c21.2,10.9,65.5,53,126.3,138.6c22.5,31.7,42.9,63.7,57.4,90.1
			c11.1,20.1,24.3,47.1,24.3,61.5C316.3,694.2,315.4,695.1,314.3,695.1z"/>
		<path class="st9" d="M323.7,690.7c-1,0-1.8-0.7-2-1.7c-1.5-11.4-7.9-105.7,10.1-140.9c0.5-1,1.7-1.4,2.7-0.9
			c1,0.5,1.4,1.7,0.9,2.7c-17.4,34.1-11,128.9-9.7,138.6c0.1,1.1-0.6,2.1-1.7,2.2C323.9,690.7,323.8,690.7,323.7,690.7z"/>
		<path class="st8" d="M207,778.8c-0.7,0-1.4-0.2-2-0.6c-1.6-1.1-2-3.3-0.9-4.9c22.8-32.5,132.6-102,267.1-169
			C628.3,526,778.4,471.1,882.8,453.5c1.9-0.3,3.7,1,4,2.9c0.3,1.9-1,3.7-2.9,4c-103.8,17.4-253.1,72.1-409.6,150.1
			C342.9,676,231.7,746.1,209.9,777.3C209.2,778.3,208.1,778.8,207,778.8z"/>
		<path class="st8" d="M440.7,133.7c-0.7,0-1.2-0.6-1.2-1.2v-6.3c0-7.3,5.9-13.2,13.2-13.2h18.6c0.7,0,1.2,0.6,1.2,1.2
			s-0.6,1.2-1.2,1.2h-18.6c-5.9,0-10.8,4.8-10.8,10.8v6.3C441.9,133.2,441.4,133.7,440.7,133.7z"/>
		<path class="st8" d="M548.6,338.4h-17.1c-0.7,0-1.2-0.6-1.2-1.2s0.6-1.2,1.2-1.2h17.1c5.9,0,10.8-4.8,10.8-10.8v-77.3
			c0-0.7,0.6-1.2,1.2-1.2s1.2,0.6,1.2,1.2v77.3C561.9,332.5,555.9,338.4,548.6,338.4z"/>
		<path class="st8" d="M560.6,166.6c-0.7,0-1.2-0.6-1.2-1.2v-39.1c0-5.9-4.8-10.8-10.8-10.8h-47.1c-0.7,0-1.2-0.6-1.2-1.2
			s0.6-1.2,1.2-1.2h47.1c7.3,0,13.2,5.9,13.2,13.2v39.1C561.9,166,561.3,166.6,560.6,166.6z"/>
		<path class="st8" d="M452.2,729h-73.1v-13.1l44.8-20.6l28.3,5.4V729z M381.6,726.5h68.1v-23.7l-25.5-4.8l-42.6,19.6V726.5z"/>
		<path class="st8" d="M581.3,728.9h-33.2l-4.3-14l41.1-31.4l19.9-8.4l0.5,1.1c3.5,7.9,11.9,28.6,12,28.8l0.4,1L581.3,728.9z
			 M549.9,726.4h30.6l34-21.4c-1.6-4-7.8-19.2-11.1-26.6l-17.5,7.4l-39.3,30.1L549.9,726.4z"/>
		<path class="st8" d="M374.9,131.4c-0.3,0-0.6-0.1-0.9-0.3c-5.1-4.7-12.9-13.5-19.8-24.1c-5.2-7.9-11.5-19.4-11.9-29
			c-0.2-4,2.5-8.8,8.2-14.7c19.4-20.1,70.2-47.7,75.2-47.7c0.2,0,0.3,0,0.4,0c2.4-3.6,5.4-6.7,9-9.2c10.4-7.5,21.9-8.6,26.3-2.6
			c1.5,2.2,2,4.9,1.4,7.4c-0.1,0.7-0.8,1.1-1.5,1c-0.7-0.1-1.1-0.8-1-1.5c0.4-1.9,0-3.9-1-5.5C456,0.6,445.5,2,436.6,8.4
			c-3.6,2.5-6.5,5.6-8.8,9.3c-0.3,0.5-1,0.7-1.6,0.5c-0.2-0.1-0.3-0.1-0.5-0.1c-2.1,0.2-22.3,10.2-42.7,23.3
			c-24.5,15.8-38.4,29.1-38.1,36.5c0.6,16.5,20.4,41.6,30.9,51.3c0.5,0.5,0.5,1.3,0.1,1.8C375.6,131.3,375.2,131.4,374.9,131.4z"/>
		<path class="st8" d="M410.8,100.2c-0.3,0-0.6-0.1-0.9-0.4c-5.6-5.6-12.8-11.9-17.6-16.1c-2.1-1.8-3.8-3.3-4.6-4.1
			c-0.3-0.3-0.4-0.7-0.4-1.1c0.1-0.4,0.3-0.7,0.7-0.9c3.9-2,33.3-30.7,48.2-45.6c0.2-0.2,0.4-0.3,0.6-0.3c4.5-1,8.7-2.9,12.4-5.6
			c6.1-4.4,10.4-10.2,11.2-15.2c0.1-0.7,0.8-1.1,1.4-1c0.7,0.1,1.1,0.8,1,1.4c-0.9,5.6-5.6,12.1-12.2,16.8c-3.9,2.9-8.3,4.9-13,6
			c-5.2,5.1-38.6,38.3-47.2,44.8c0.9,0.8,2,1.8,3.4,3c4.8,4.2,12.1,10.6,17.7,16.3c0.5,0.5,0.5,1.3,0,1.8
			C411.5,100.1,411.1,100.2,410.8,100.2z"/>
		<path class="st8" d="M411,170.6c-0.2,0-0.3,0-0.5-0.1c-18.9-7.8-37.6-28.4-38.4-34.8c-0.6-4.9,6.3-14.1,12.4-20.5
			c9-9.3,22-18.9,31.6-18c9.9,0.9,18.2,20.7,22.4,37.3c0.2,0.7-0.2,1.3-0.9,1.5c-0.7,0.2-1.3-0.2-1.5-0.9
			c-5.1-20.2-13.4-34.8-20.2-35.5c-8.8-0.8-21.4,8.8-29.6,17.3c-8.2,8.5-12.1,15.7-11.7,18.5c0.7,5.2,18.8,25.3,36.9,32.8
			c0.6,0.3,0.9,1,0.7,1.6C412,170.3,411.5,170.6,411,170.6z"/>
		<path class="st8" d="M517.4,146.6c-0.4,0-0.9-0.2-1.1-0.6c-5.1-9.3-11.1-16-17.8-20c-0.6-0.4-0.8-1.1-0.4-1.7
			c0.4-0.6,1.1-0.8,1.7-0.4c7.1,4.2,13.4,11.3,18.7,20.9c0.3,0.6,0.1,1.4-0.5,1.7C517.8,146.5,517.6,146.6,517.4,146.6z"/>
		<path class="st8" d="M452.3,320c-21.6,0-50.6-1.2-54.7-5.9c-2.6-3-5.6-23.8-5.6-48.7c0-22.7,2.3-56,13.4-85.7
			c13.2-35.5,35.1-55.6,65-59.8c0.7-0.1,1.3,0.4,1.4,1.1c0.1,0.7-0.4,1.3-1.1,1.4c-29,4.1-50.2,23.7-63,58.2
			c-10.9,29.4-13.2,62.3-13.2,84.9c0,26.8,3.3,45.2,5,47.1c2.5,2.9,26.3,5.5,61.7,4.9c34.9-0.6,61.2-4,67.1-8.6
			c5.6-4.4,10-41.1,7.2-81.8c0-0.7,0.5-1.3,1.2-1.3c0.7,0,1.3,0.5,1.3,1.2c2.7,39.2-1.1,78.4-8.1,83.9c-7.7,6-40.5,8.7-68.6,9.1
			C458.4,320,455.4,320,452.3,320z"/>
		<path class="st8" d="M502.9,69.7c-0.2,0-0.3,0-0.5-0.1c-0.1,0-0.2-0.1-0.3-0.1c-3-1-5.7-4.8-8-8.8c-0.4-0.6-0.2-1.4,0.4-1.7
			c0.6-0.4,1.4-0.2,1.7,0.4c1.9,3.2,4.4,6.9,6.7,7.7c0.2,0.1,0.4,0.1,0.6,0.2c0.6,0.3,0.9,1,0.6,1.7
			C503.8,69.4,503.4,69.7,502.9,69.7z"/>
		<path class="st8" d="M454.2,60c-20.4,0-20.4-14.2-20.4-22.6c0-1.7,0.6-3.3,1.6-4.6c0.4-0.5,1.2-0.6,1.8-0.2
			c0.5,0.4,0.6,1.2,0.2,1.8c-0.7,0.9-1.1,1.9-1.1,3c0,8.8,0,19.7,17,20.1c1.6-4.7,6.1-13.7,11.5-18c0.4-0.3,0.8-0.4,1.3-0.2l0.5,0.2
			c1.2,0.5,3.4,1.4,6,2.5c0.6,0.3,0.9,1,0.7,1.6c-0.3,0.6-1,0.9-1.6,0.7c-2.5-1-4.6-1.9-5.8-2.4c-5.1,4.4-9.3,13.4-10.4,17.2
			C455.2,59.6,454.7,60,454.2,60z"/>
		<path class="st8" d="M512.9,81.7c-0.6,0-1.2-0.5-1.2-1.1c-0.1-0.7,0.4-1.3,1.1-1.4c10.4-1.1,15.4-7.8,15.4-20.3
			c0-4-2.2-7.4-4.2-10.5c-1.6-2.5-3-4.7-3-6.8c0-1,0.1-2.1,0.2-3.2c0.4-4.1,1-9.2-2.9-13c-4.8-4.7-12-4.2-19.6-3.8
			c-2.2,0.1-4.6,0.3-6.8,0.3c-4.6,0-8.1-2.4-11.8-4.9c-4.1-2.8-8.4-5.7-14.7-5.7c-1.1,0-2.2,0.2-3.1,0.8c-0.6,0.4-1.4,0.2-1.7-0.4
			c-0.4-0.6-0.2-1.4,0.4-1.7c1.3-0.8,2.9-1.2,4.4-1.2c0,0,0,0,0,0c7,0,11.8,3.2,16,6.1c3.5,2.4,6.6,4.4,10.4,4.4
			c2.2,0,4.4-0.1,6.6-0.3c7.8-0.5,15.8-1,21.5,4.5c4.8,4.7,4.2,10.7,3.7,15.1c-0.1,1.1-0.2,2.1-0.2,3c0,1.4,1.3,3.4,2.6,5.5
			c2.1,3.2,4.6,7.1,4.6,11.8c0,9.5-3.1,21.2-17.7,22.8C513,81.7,513,81.7,512.9,81.7z"/>
		<path class="st8" d="M510.8,83.1c-0.5,0-1-0.3-1.2-0.8c-0.3-0.6,0-1.4,0.7-1.6c0.9-0.4,1.7-0.9,2.3-1.7c2.4-2.7,2.2-6.9-0.5-9.4
			s-6.9-2.2-9.4,0.5c-0.5,0.5-1.3,0.5-1.8,0.1c-0.5-0.5-0.6-1.3-0.1-1.8c3.4-3.7,9.2-4,12.9-0.6c3.7,3.4,4,9.2,0.6,12.9
			c-0.9,1-2,1.8-3.2,2.3C511.1,83.1,511,83.1,510.8,83.1z"/>
		<path class="st8" d="M569.7,693.8c-0.2,0-0.5,0-0.7-0.1c-1.9-0.4-3.1-2.2-2.7-4.1l71-351.7c0.4-1.9,2.2-3.1,4.1-2.7
			c1.9,0.4,3.1,2.2,2.7,4.1l-71,351.7C572.8,692.7,571.4,693.8,569.7,693.8z"/>
		<path class="st8" d="M648,305.9c-0.2,0-0.5,0-0.7-0.1c-1.9-0.4-3.1-2.2-2.7-4.1L673.7,157c0.4-1.9,2.2-3.1,4.1-2.7
			c1.9,0.4,3.1,2.2,2.7,4.1l-29.2,144.7C651.1,304.8,649.6,305.9,648,305.9z"/>
		<path class="st8" d="M649.3,341.9c-5.2,0-10.7-2.1-14.9-6.4c-3.9-3.8-6.2-9.2-6.4-14.7c-25.5-22.4-69.5-73.3-86.1-92.6l-2.1-2.5
			c-0.5-0.5-0.4-1.3,0.1-1.8c0.5-0.5,1.3-0.4,1.8,0.1l2.1,2.5c16.7,19.3,60.9,70.6,86.3,92.7l0.4,0.4l0,0.6c0,5,2,9.9,5.6,13.5
			c6.9,6.9,17.5,7.6,23.7,1.5c2.7-2.7,4.2-6.4,4.2-10.5c0-4.8-2.1-9.6-5.7-13.1c-2.8-2.9-6.4-4.7-10.3-5.4l-0.6-0.1l-0.3-0.5
			c-12.6-20.3-54.6-81.8-75.5-108.1c-0.4-0.5-0.3-1.3,0.2-1.8c0.5-0.4,1.3-0.3,1.8,0.2c21.6,27.2,62.6,87.4,75.4,107.9
			c4.2,0.9,8.1,2.9,11.1,6c4.1,4,6.4,9.5,6.4,14.9c0,4.7-1.8,9.1-4.9,12.3C658.2,340.3,653.8,341.9,649.3,341.9z"/>
		<path class="st8" d="M531,229.6c-8.8,0-21.7-20.5-27.9-38.9c-6.6-20-5.2-35.4,4-42.2v0c9.1-6.7,21-6.5,34.6,0.9
			c18.4,9.9,35.7,31.1,35.2,39.7c-0.5,8.8-14.5,21.5-18.8,25.1C549.8,221.3,537.8,229.6,531,229.6C531,229.6,531,229.6,531,229.6z
			 M508.6,150.5c-11.7,8.7-6.1,30.4-3.1,39.4c7,21,19.4,37.2,25.5,37.2c0,0,0,0,0,0c10.5,0,42.8-26.6,43.4-38.2
			c0.4-7-15.3-27.3-33.9-37.4C531.7,146.8,519,142.8,508.6,150.5L508.6,150.5z"/>
		<path class="st8" d="M531.1,306.7c-0.5,1.2-1.2,2.2-2.1,3c-8.7,6.9-54.7,9.6-89.7,8.8c16.8,83.5,133,355.4,142.2,369.8
			c7.2,1.5,23.6-5.6,26.2-10.3C610.2,673.7,541.3,341.8,531.1,306.7z"/>
		<path class="st8" d="M402.3,315.1c0.3,28.8,5.2,355.1,14,384.2c8,4,29,5,36,2c6.3-2.7,43.5-313.4,50.5-385.1
			C469.8,320,417.2,319.5,402.3,315.1z"/>
	</g>
</g>
</svg>
