<?xml version="1.0" encoding="utf-8"?>
<!-- Generator: Adobe Illustrator 23.0.4, SVG Export Plug-In . SVG Version: 6.00 Build 0)  -->
<svg version="1.1" id="Layer_1" xmlns="http://www.w3.org/2000/svg" xmlns:xlink="http://www.w3.org/1999/xlink" x="0px" y="0px"
	 viewBox="0 0 24 24" style="enable-background:new 0 0 24 24;" xml:space="preserve">
<style type="text/css">
	.st0{fill:#727270;}
</style>
<path class="st0" d="M21.4,8.6C21.4,8.6,21.4,8.6,21.4,8.6c-1.9-5.2-7.6-7.9-12.8-6c-2.8,1-4.9,3.2-6,6c0,0,0,0,0,0.1
	c-0.8,2.2-0.8,4.5,0,6.7c0,0,0,0,0,0.1c1.9,5.2,7.6,7.9,12.8,6c2.8-1,4.9-3.2,6-6c0,0,0,0,0-0.1C22.2,13.2,22.2,10.8,21.4,8.6z
	 M4.3,14c-0.3-1.3-0.3-2.7,0-4h1.9c-0.2,1.3-0.2,2.7,0,4H4.3z M5.1,16h1.4c0.2,0.9,0.6,1.8,1,2.6C6.5,17.9,5.7,17,5.1,16z M6.5,8
	H5.1c0.6-1,1.4-1.9,2.4-2.6C7,6.2,6.7,7.1,6.5,8z M11,19.7c-1.2-0.9-2.1-2.2-2.4-3.7H11V19.7z M11,14H8.1c-0.2-1.3-0.2-2.7,0-4H11
	V14z M11,8H8.6C8.9,6.5,9.8,5.2,11,4.3V8z M18.9,8h-1.4c-0.2-0.9-0.6-1.8-1-2.6C17.5,6.1,18.3,7,18.9,8z M13,4.3
	c1.2,0.9,2.1,2.2,2.4,3.7H13V4.3z M13,19.7V16h2.4C15.1,17.5,14.2,18.8,13,19.7z M15.9,14H13v-4h2.9C16,11.3,16,12.7,15.9,14z
	 M16.5,18.6c0.4-0.8,0.8-1.7,1-2.6h1.4C18.4,17,17.5,17.9,16.5,18.6z M19.7,14h-1.9c0.1-0.7,0.1-1.3,0.1-2c0-0.7,0-1.3-0.1-2h1.9
	C20.1,11.3,20.1,12.7,19.7,14z"/>
</svg>
