<svg xmlns="http://www.w3.org/2000/svg" viewBox="0 0 32.05 28.96"><defs><style>.cls-1{fill:#ff8552;opacity:0.39;}.cls-2{fill:#273043;}</style></defs><title>priv</title><g id="Layer_2" data-name="Layer 2"><g id="Layer_1-2" data-name="Layer 1"><path class="cls-1" d="M26.05,19.09c0,7.18-3.82,9-11,9s-14.26-1.86-15-9c-.64-6.11,5.24-12,13-13C20.17,5.19,26.05,11.91,26.05,19.09Z"/><path class="cls-2" d="M16,5.91a8.8,8.8,0,0,1,1.54-.11c4.6,0,8.93,3.31,11.44,8.68a20.92,20.92,0,0,1-1.3,2.37,1.52,1.52,0,0,0-.23.8,1.44,1.44,0,0,0,1.46,1.43,1.42,1.42,0,0,0,1.23-.71A22,22,0,0,0,31.92,15a1.41,1.41,0,0,0,0-1.14C29,7.11,23.5,2.9,17.57,2.9a12.54,12.54,0,0,0-2,.17A1.47,1.47,0,0,0,16,6ZM5.57.43A1.45,1.45,0,1,0,3.51,2.48L8,7a21.1,21.1,0,0,0-4.79,7,1.46,1.46,0,0,0,0,1.16c2.92,6.79,8.42,11,14.36,11a13.34,13.34,0,0,0,7.3-2.23l4.69,4.7a1.45,1.45,0,0,0,2.05,0h0a1.44,1.44,0,0,0,0-2h0Zm9.2,13.3,3.55,3.54a2.42,2.42,0,0,1-.75.1,2.89,2.89,0,0,1-2.9-2.89A2.66,2.66,0,0,1,14.77,13.73Zm2.8,9.43c-4.61,0-8.93-3.31-11.44-8.68A17.49,17.49,0,0,1,10,9l2.56,2.59a5.79,5.79,0,0,0,7.86,7.86l2.3,2.28A10.53,10.53,0,0,1,17.57,23.16Z"/></g></g></svg>