<svg xmlns="http://www.w3.org/2000/svg" viewBox="0 0 36.25 35.06"><defs><style>.cls-1{fill:#ff8552;opacity:0.39;}.cls-2{fill:#273043;}</style></defs><title>ref</title><g id="Layer_2" data-name="Layer 2"><g id="Layer_1-2" data-name="Layer 1"><path class="cls-1" d="M34.46,13.78c6.38,3.29-5.82,13-13,13a13,13,0,0,1-13-13c0-7.18,6.76-16.56,13-13C25,2.77,27.66,10.28,34.46,13.78Z"/><path class="cls-2" d="M18.82,6.12H1.45A1.45,1.45,0,0,0,0,7.57V33.62a1.44,1.44,0,0,0,1.45,1.44H18.82a4.34,4.34,0,0,0,4.34-4.34V10.46A4.34,4.34,0,0,0,18.82,6.12Zm-13,26.05H2.89V9h2.9Zm14.47-1.45a1.45,1.45,0,0,1-1.44,1.45H8.68V9H18.82a1.45,1.45,0,0,1,1.44,1.45Z"/></g></g></svg>